<svg style="height: 32px; width: 32px;" xmlns="http://www.w3.org/2000/svg" viewBox="0 0 512 512"><circle cx="256" cy="256" r="256" fill="#000" fill-opacity="1"></circle><g transform="translate(0,0)"><path d="M256 76c-48.6 0-88 39.4-88 88 0 18 5.5 34.8 14.8 48.8l-2.8 4.2c-6.8 10.2-10.5 22.3-10.5 34.8v16h36v-16c0-6.2 1.8-12.2 5.2-17.4l11.8-17.6c10.8 5.2 23 8.2 35.8 8.2s25-3 35.8-8.2l11.8 17.6c3.4 5.2 5.2 11.2 5.2 17.4v16h36v-16c0-12.5-3.7-24.6-10.5-34.8l-2.8-4.2c9.3-14 14.8-30.8 14.8-48.8-.3-48.6-39.7-88-88.3-88zm0 36c28.7 0 52 23.3 52 52s-23.3 52-52 52-52-23.3-52-52 23.3-52 52-52zm-18 196v36h36v-36zm0 72v72h36v-72z" fill="#fff" fill-opacity="1"></path></g></svg>
